<svg width="96" height="96" xmlns="http://www.w3.org/2000/svg" xmlns:xlink="http://www.w3.org/1999/xlink" xml:space="preserve" overflow="hidden"><defs><clipPath id="clip0"><rect x="0" y="0" width="96" height="96"/></clipPath></defs><g clip-path="url(#clip0)"><path d="M48 12C67.8822 12 84 28.1177 84 48 84 67.8822 67.8822 84 48 84 28.1177 84 12 67.8822 12 48 12.0226 28.1271 28.1271 12.0226 48 12M48 10C27.0132 10 10 27.0132 10 48 10 68.9868 27.0132 86 48 86 68.9868 86 86 68.9868 86 48 86.0094 27.0226 69.0114 10.0094 48.034 10 48.0227 10 48.0113 10 48 10Z" fill="#FF0000" fill-rule="nonzero" fill-opacity="1"/><path d="M54 26 54 42 70 42 70 54 54 54 54 70 42 70 42 54 26 54 26 42 42 42 42 26ZM40 24 40 40 24 40 24 56 40 56 40 72 56 72 56 56 72 56 72 40 56 40 56 24Z" fill="#FF0000" fill-rule="nonzero" fill-opacity="1"/></g></svg>